<svg xmlns="http://www.w3.org/2000/svg" viewBox="0 0 93.47 45.94"><defs><style>.d{fill:#fff}</style></defs><g id="c"><path class="d" d="M43.13 16.19l-3.5 16.59h9.17l3.51-16.59h-9.18zm-21.6 28.45h-2.28l-.35 1.17h-1.55l2.25-6.3h1.58l2.25 6.3h-1.55l-.36-1.17zm-1.9-1.24h1.52l-.76-2.49-.77 2.49zm10.07-3.89h1.55v3.95c0 1.48-1.04 2.48-2.68 2.48s-2.68-1-2.68-2.48v-3.95h1.55v3.99c0 .76.45 1.15 1.13 1.15s1.13-.4 1.13-1.15v-3.99zm9.25 0v1.31h-1.7v5H35.7v-5H34v-1.31h4.95zm5.45 6.43c-1.91 0-2.89-1.22-2.89-2.87v-.81c0-1.65.98-2.87 2.89-2.87s2.89 1.22 2.89 2.87v.81c0 1.65-.98 2.87-2.89 2.87zm0-5.27c-.9 0-1.34.6-1.34 1.5v.97c0 .9.44 1.5 1.34 1.5s1.34-.6 1.34-1.5v-.97c0-.9-.44-1.5-1.34-1.5zm10.63-1.16h1.42v6.3h-1.49v-3.33l-.99 1.93h-1.22l-.98-1.93v3.33h-1.49v-6.3h1.42l1.66 3.43 1.67-3.43zm8.36 5.13h-2.28l-.35 1.17h-1.55l2.25-6.3h1.58l2.25 6.3h-1.55l-.36-1.17zm-1.9-1.24h1.52l-.76-2.49-.77 2.49zm10.49-3.89v1.31h-1.7v5h-1.55v-5h-1.7v-1.31h4.95zm4.35 6.3h-1.55v-6.3h1.55v6.3zm5.91.13c-1.91 0-2.89-1.22-2.89-2.87v-.81c0-1.65.98-2.87 2.89-2.87s2.89 1.22 2.89 2.87v.81c0 1.65-.98 2.87-2.89 2.87zm0-5.27c-.9 0-1.34.6-1.34 1.5v.97c0 .9.44 1.5 1.34 1.5s1.34-.6 1.34-1.5v-.97c0-.9-.44-1.5-1.34-1.5zm9.75 5.14l-2.36-3.68v3.68h-1.51v-6.3h1.47l2.37 3.68v-3.68h1.51v6.3h-1.48z"/><path d="M60.58 0h-9.12a6.11 6.11 0 00-5.97 4.83l-1.78 8.19h11.84c.27 0 .53-.05.78-.12.01 0 .03 0 .04-.01.94-.29 1.69-1.07 1.9-2.07L60.58 0z" fill="#e20613"/><path class="d" d="M31.32 16.13l-1.77 8.34c-.21 1-1.1 1.72-2.13 1.72H13.46l3.72-17.44c.28-1.3 1.43-2.24 2.76-2.24h4.82L26.09.03h-8.62c-7.58 0-9.48 8.31-9.48 8.31L0 45.94h9.33l2.82-13.17h19.88c4.79 0 5.31-4.54 5.31-4.54l2.58-12.11h-8.6z"/><path class="d" d="M42.04 5.92c.52-3.08-1.85-5.92-5-5.92H29.3l-2.18 10.29a2.27 2.27 0 002.22 2.74h11.2c.56-2.53 1.5-7.1 1.5-7.1zM83.3 0H63.76l-1.38 6.51h15.28c.99 0 1.72.91 1.52 1.87l-.99 4.65H59.41c-.59 0-1.15.14-1.67.38-.04.02-.09.04-.13.06-.13.07-.26.14-.38.22-.04.03-.09.06-.13.09-.81.57-1.41 1.42-1.62 2.44l-2.21 10.61c-.65 3.07 1.69 5.96 4.83 5.96h20.09c3.44 0 5-2.53 5.34-4.12 1.24-5.94 4.73-22.55 4.73-22.55C88.93 2.97 86.52 0 83.3 0zm-7.02 21.99l-.63 2.98c-.15.71-.78 1.23-1.51 1.23H62.65c-1 0-1.74-.92-1.54-1.9l.72-3.37c.15-.71.78-1.23 1.51-1.23h13.43l-.48 2.29z"/></g></svg>